<svg enable-background="new 0 0 195.1 278.1" viewBox="0 0 195.1 278.1" xmlns="http://www.w3.org/2000/svg"><path d="m23.5 88.8s.1-.1.1-.1c2.1-3.1 4.1-6.5 5.1-8.4.3-.6.6-1.1.9-1.7v-21.1l66.1-38.2 66.1 38.2v27c2.2 1.7 4.3 3.5 6.2 5.3v-35.9l-72.2-41.7-72.3 41.7z" fill="#fff"/><path d="m78.2 149.6-7.2 11.1 10.3 2.9-2.5 5.2 17 8.7 33.5-19 36.6-20.8.4-14.6-6.7-9.5-3.4-7.4 15.8 4-3.1-9.2-20.2-16.7-18.5-9.4 20.7-.5 1.8-2.7-7.5-4.9-26.3-7.9-26.7 2.8 3.3-24.8-2.1-4.9-2.8 5.3-11.3 15.9-36.9 22.6-7 8.4-10.9 15.6-13.7 2-1.2 11.8 5.4 15.4 22.9-1 2.3-3.7 23.1.7 1.4-8.9 24.3-2.5-6.9 8.1-.7 18z" fill="#d54332"/><path d="m99.7 87.6c-.1 0 28.4 30.4 18.4 71.2 0 0 5.4-4.1 10.5-16.3 0 0 1.8 12.8-3.5 18.6l13.4-8.4c.1 0-2.3-51.4-38.8-65.1zm-9.2 26-1.1-.6-.4.6-18.8 3.1-11.7.9 6.9 3.4-1 3.3h-25.6l-1.2 4.7-22.8-1.2-2.2-6 18.7 1.9s-2.7-5.4 11.4-5.6c7.4-.1 8.6.6 8.6.6s-8.1-6.2 8.7-7.6c9.2.5 18.4-.9 24.5-4.1-1.8-6-4.2-17.1 1.1-22.5 0 0-2.5 17 11.2 20.4.3.1.5.1.8.1zm82-5.2c1.4 1.6-.5 1.8-.5 1.8s-.1 0-.3-.1l-.8 1.6-15-5.7c-1.4 1.2 8.6 14.6 8.6 14.6l.9 16.3-5.2 4v-17.2s-18-25.4-28.8-27.1c0 0 5.3-.4 12.4.5-1.8-1.8-5.7-4.9-13.2-7.6 0 0 9.3.5 18.9 3.1-15-8.8-38-15.1-38-15.1 10.9-6.6 19.3-8.7 25.3-8.7-33.1-13.1-58.5 4.5-58.5 4.5s3.3-12.8 11.1-19.2c0 0-6.8 2.6-9.2 5.8 0 0-.3-1.2 2-6s9.5-18.8 9.5-18.8l1.6-1.9 1.7 13-4.5 15.3-8 5 5.6-3.1 11.6-3.4 25.9.4 24 7.8 2.5 4.8-2.5-.2c.8.7 1.2 1.2 1.2 1.2h-10.8l-12 2.8 17 7.7c9.1 1.5 28.1 23 28.1 23z" fill="#b52f23"/><path d="m113.7 138.6s5.2 24.4-17.7 39.4l-15.7-9.5 1.5-3.3-8-2.1-2.7-3 10.2-16.7.9-22.9 15.4-15.4s2.8 12.3-7 20.8c0 0 13.3-4.8 17.4-10.2.2-.3.4-.5.5-.8 3.3-5.8 2.7 22.2-3.5 28.1 0 0 5.8-.6 8.7-4.4zm.9-44.1 23 36.7c-.6-10 12.3 1.5 12.3 1.5-1.1-13.7-35.3-38.2-35.3-38.2zm-84.1-1.3-5.4 8.6s5.3 0 10.7-8.9c5.3-9 5.2-13 9.9-15.7l-3-1.4zm60-47.5c2.6-8.5 2.5-10.5 2.5-10.5l-2.5 3.2-8.3 15.6-14.6 6.6-10.8 7-.8 3.5 4.1-1.6s4.9-3.7 8-4.7 19.8-10.6 22.4-19.1z" fill="#e79e9c"/><path d="m74.9 162.5s-4.1-.5-4-2.3c.1-1.6 7.4-8.3 9.7-15.9l.7-4.6h.1c.7-8.4-.2-18.2-.2-18.2l5.4-2s2 9 1 19.1c5.4-1.2 12.6-3.3 15-6.6 0 0-6.4 10.6-16.7 15.5-1.7 6-5.1 11.5-11 15zm25.7-4.6c-2.9 3-12 6.4-17.6 8.3l-1.8-.1-.3.8c-1.5.5-2.5.8-2.5.8l1.8 1.1 3.1 1.3 13.4 6 3.8-.6-9.4-5.5c5.6-4.5 9.5-12.1 9.5-12.1z" fill="#c57977"/><path d="m43.4 95.8s5.2-3.8 5.9-3.8 5.3-.4 7.4-3.3 2.9-7.4 3-9.1l-4.4 1c.1.1-9.1 8.5-11.9 15.2z" fill="#b52f23"/><path d="m48.2 89.8s2.1-4.2 6.1-7.4c.1-.1 2.3 7.6-6.1 7.4z" fill="#e79e9c"/><path d="m59 77.5c-11.3 4.4-14.9 15.6-15.1 16.1l-.7 2.4 1.8-1.7c1.3-1.2 3-2.7 3.4-3 .7 0 3.6-.3 5.7-2 2.1-1.6 1.9-5.8 1.8-7.1.2-.2.5-.4.7-.5.1.6.2 2 .2 3.4v1.5l1.1-1c1.6-1.3 2-6.4 2-7.4l.1-1zm-9.8 11.4s1.6-3.2 4.6-5.6c.1-0 1.8 5.8-4.6 5.6z"/><path d="m113.7 181.4h-10.8l10.8-6.2zm-20.9 5.2h29v12.9h-7.2v15.6c0 3.9-.9 6.7-2.7 8.6-1.8 1.8-5.4 2.7-10.8 2.7h-11.3c-5.4 0-9-.9-10.8-2.7-1.8-1.9-2.7-4.7-2.7-8.6v-12.4c0-3.9 1.8-6.7 5.5-8.6.9-.4 1.3-.7 1.4-1 0-.3-.5-.7-1.4-1-3.4-1.9-5.1-4.7-5.1-8.6v-6.3c0-1 .1-1.9.1-2.6l14.3 8.3v.3 1.6c0 1.2.6 1.8 1.7 1.8zm6.9 12.9h-6.9c-1.1 0-1.7.6-1.7 1.8v10.5c0 1.2.6 1.8 1.7 1.8h5.2c1.2 0 1.7-.6 1.7-1.8zm-37.2-46.6v15.9 46.3c0 3.9-.9 6.8-2.7 8.6s-5.4 2.7-10.8 2.7h-25.6v-80.1-4.6h25.6c5.4 0 8.9.9 10.8 2.7 1.8 1.8 2.7 4.7 2.7 8.5zm-14.8 3.3c0-1.2-.6-1.8-1.7-1.8h-7.8v.4 58.8h7.8c1.1 0 1.7-.6 1.7-1.8v-51.6zm101.9-1.8h2c1.1 0 1.7.6 1.7 1.8v4 51.6c0 1.2-.6 1.8-1.7 1.8h-7.8v-55.9l-14.8 8.5v60.1h25.6c5.4 0 9-.9 10.8-2.7s2.7-4.7 2.7-8.6v-46.3-15.9c0-3.4-.7-6.1-2.2-7.9z" fill="#fff"/><path d="m69.8 250.5h8.4v10.7c0 1.7-.4 2.9-1.2 3.7s-2.4 1.2-4.7 1.2h-5.3c-2.3 0-3.9-.4-4.7-1.2s-1.2-2-1.2-3.7v-19.1c0-1.7.4-2.9 1.2-3.7s2.4-1.2 4.7-1.2h5.1c2.3 0 3.9.4 4.7 1.2s1.2 2 1.2 3.7v5.1h-6.3v-3.7c0-.5-.2-.8-.8-.8h-2.7c-.5 0-.7.3-.7.8v16.3c0 .5.2.8.7.8h2.9c.5 0 .8-.3.8-.8v-3.7h-2.2v-5.6zm51.9-7.8h5.3v23.4h6.5v-23.4h5.3v-5.6h-17.1zm-39.3 17.9v5.6h14.5v-5.6h-8v-6.1h6.9v-5.6h-6.9v-6.1h8v-5.6h-14.5zm30.4-6.7-5.8-16.8h-6.5v29h6.1v-16.1l5.8 16.2h6.5v-29h-6.1z" fill="#fff"/><path d="m22.4 106c-2.5 0-4.7 6.6-4.7 6.6 2.2-3 4-3.6 5.3-3.6 1.1 0 1.9.5 2.4.5.1 0 .2 0 .3-.2.5-1.1-.9-3.3-3.3-3.3zm92.9-23.1c-.6-.5-1.1-1-1.8-1.5-.6-.4-1.3-.9-1.9-1.3-.3-.2-.7-.4-1-.6s-.7-.3-1-.5c-.7-.3-1.4-.7-2.1-1s-1.5-.5-2.2-.8c-.4-.1-.8-.2-1.1-.3-.4-.1-.8-.2-1.2-.3-.8-.1-1.6-.3-2.3-.4-3.2-.4-6.4-.2-9.5.5-3 .8-6 2.1-8.3 4.3 3-.7 5.9-1.1 8.8-1.2s5.7 0 8.5.3l2.1.3c.4.1.7.1 1.1.2.3.1.7.2 1 .2.7.2 1.4.3 2.1.5s1.4.4 2.1.6l1.1.3c.3.1.7.2 1 .3.7.2 1.4.4 2.1.7 1.4.5 2.8 1 4.3 1.4-.6-.7-1.2-1.2-1.8-1.7zm59 23.5c-1.1-1.9-4.1-6-4.2-6.1-1-1.3-2-2.5-3-3.6-9.8-10.8-22.7-17-32.3-20.5 2.1-.3 4.1-.4 5.9-.4 4.7 0 8.3.7 8.3.7.2.1.5.1.8.1 1.9 0 3.6-1.2 4.3-3 .8-2.1 0-4.4-1.9-5.6-12-7.4-25.2-11.1-39.4-11.1-6.1 0-12.2.6-18.4 2 3.6-10 3.7-20 3.5-24-.2-2.5-2.2-4.5-4.7-4.5h-.1c-2.5 0-4.5 2.1-4.5 4.6 0 3.1-2.6 8-6.6 12.6-4.4 5-9.9 8.8-14.6 10.3-1.1.4-2.2.8-3.3 1.4-1.5.8-2.9 1.7-4.1 2.8-3.4 3-7.6 5.9-11.7 8.2l-.6.4c-5.2 2.8-11 6-14.1 12.1-1.2 2.3-3.4 6-5.6 9.2-.1.1-.2.3-.3.4-1 1.4-2 2.6-2.8 3.5-1.1 1.3-1.7 1.6-1.7 1.6-.1.1-.2.2-.3.2-4.1 1.5-7.5 1.7-9.2 1.7-.6 0-1 0-1.1 0-.2 0-.4 0-.6 0-2.2 0-4 1.5-4.5 3.7-2 9.9-.1 19.3 5.2 25.7.8.9 2 1.5 3.2 1.6l12.1 1 7.6.7h.4c1.9 0 3.6-1.1 4.3-2.9.3-.9.4-1.8.2-2.7 1.5-.2 3.7-.4 7.1-.4 4.3 0 9.3.3 14.9 1h.6c2.1 0 4-1.6 4.5-3.7.1-.5.5-3.1-1.9-4.8.7 0 1.5-.1 2.2-.1h.2c.5 0 1.3-.1 2.3-.1 3.8-.1 9.6-.3 14.5-1.9-.8.7-1.8 1.3-2.8 1.9-1.6.9-2.5 2.8-2.3 4.6.3 2.4 0 12.2-.4 13.7-.6 2.7-1 5.5-1.4 8.2-.9 3.3-3.5 7.4-7.7 11.8-1.2 1.3-1.6 3-1 4.7s2 2.9 3.7 3.1c1.5.3 3.3.5 5.3.7-.8.7-.8 1-.9 2-.2 1.9 3 3 4.6 4l13.9 8 72.3-41.7v-13.3-.9c0-.8-.3-1.6-.7-2.3-1.8-3-3.8-6-5.9-8.8 0-.1 0-.2-.1-.2-1-1.1-1.8-2.1-2.7-3.1 1 .3 1.9.7 2.9 1.1 2.1.9 4.2 1.9 6.2 3 .7.4 1.4.6 2.2.6 1.2 0 2.4-.5 3.3-1.4.8-.9 1.3-2.1 1.3-3.3-.1-.8-.1-1.7-.4-2.5zm-11.4-1.1c-5.5-2.3-11.8-4.2-18.6-4.8 0 0 2.9 2.3 6.8 6.5.1.2.3.5.5.7 1.6 2 3.7 4.2 5.8 6.8 1.5 2 3 4.2 4.5 6.6v12.7l-18.2 10.5c-3.9-19.2-14.5-48.2-44.3-57.2 0 0 32.5 17.8 24.7 57.4 0 0 5.8-14.4 5.5-22.2 0 0 4.6 12.5 2.3 28.8l-36.1 20.9-9.4-5.4c9.7-2.9 14.2-8.7 14.2-8.7-3.3 2.5-8.9 2.8-14.5 2.8-4.9 0-9.8-.5-12.8-1 4.5-4.9 8-10 9-14.7.1-.3.1-.6.2-.9 13.9-1.5 20.7-13.3 20.7-13.3-5 4.4-13.1 5.2-18 5.2-.4 0-.9 0-1.3 0 .6-5.6.6-10.3.2-13.8 12.3-7.1 13.2-17.3 13.2-17.3-9.2-.1-12.2-14.4-12.2-14.4-2.7 11.5 4.5 16.4 4.5 16.4-2.8 7.3-17.7 6.5-22.1 6.8-2.4.1-5.3.4-8.6.6-14.5 1 4.7 8 3.9 8-6.4-.7-11.5-1-15.4-1-8.2 0-11.5 1.2-12 1.7-2.2 2.3.3 4.3.3 4.3l-7.6-.7-10.6-.9c4.4-5.1 14.8-6.1 19.5-6.5 2.4-.2 2.8-.2 2.8-.7 0-.4 1.1-2.6 2.2-4.6l5.1-.9c5.2-1 15.7-8.7 17.3-11.7 1.5-2.8 6.6-5.5 6.6-5.5l1.7-.9-2 .3c-.3 0-6.8 1.1-9.2 5.4-2 3.6-9 6.7-13.1 8.6-.4.2-.9.4-1.3.6-3.7 1.7-7.2.6-7.2.6l-.3-.1-2.4 5.8c-.7 0-2.8.2-7.9.5-5.4.3-12.6 5.4-14.8 7.1-3.1-4.7-4.7-11.6-2.9-20 0 0 .6.1 1.6.1 2.2 0 6.3-.3 11.3-2.2.1 0 .2 0 .3-.1.9-.4 2-1.4 3.1-2.6 1-1.1 2.1-2.5 3.1-3.9.8 1.2 2.1 2.6 4.1 2.6.3 0 .6 0 .9-.1l1.1-.2-1-.4c-.1-.1-3.5-1.5-3.2-4.5.8-1.3 1.7-2.7 2.4-3.9.8 1 2 2.1 3.8 2.1.3 0 .6 0 .9-.1l1.1-.2-1-.4c-.2 0-3.3-1.3-3.3-4 .2-.4.4-.8.6-1.1 2.6-5 7.8-7.8 12.8-10.5.3-.2.6-.3.9-.5 10.4-.9 19.2-7.4 19.2-7.4-4.3 2.4-10.3 3-12.5 3.1 1.7-1.2 3.4-2.6 5-4 .9-.9 2-1.6 3.1-2.1.8-.4 1.6-.8 2.6-1.1 11.8-3.6 24.4-18.3 24.4-27.3.1 3.4.1 14.4-4.2 24.6-9.8 5.4-10.4 13.7-10.4 13.7.4-3.1 7.1-7 10.1-8.2 6.1-2.4 14.6-3.6 24-3.6 11.3 0 24.2 2.5 37 10.4 0 0-3.9-.7-9.1-.7-6.3 0-14.5 1.1-20.2 5.8 0 0 26.6 4.7 43.3 22.8 1.1 1.2 2.1 2.5 3.1 3.8 1.2 1.6 2.4 3.4 3.4 5.2-2-1.1-4.3-2.1-7-3.5z"/></svg>