<?xml version="1.0" encoding="utf-8"?>
<!-- Generator: Adobe Illustrator 27.2.0, SVG Export Plug-In . SVG Version: 6.00 Build 0)  -->
<svg version="1.1" id="Layer_1" xmlns="http://www.w3.org/2000/svg" xmlns:xlink="http://www.w3.org/1999/xlink" x="0px" y="0px"
	 viewBox="0 0 195.1 278.1" style="enable-background:new 0 0 195.1 278.1;" xml:space="preserve">
<style type="text/css">
	.st0{fill:#FFFFFF;}
	.st1{fill:#D54332;}
	.st2{fill:#B52F23;}
	.st3{fill:#E79E9C;}
	.st4{fill:#C57977;}
</style>
<path class="st0" d="M23.5,88.8c0,0,0.1-0.1,0.1-0.1c2.1-3.1,4.1-6.5,5.1-8.4c0.3-0.6,0.6-1.1,0.9-1.7V57.5l66.1-38.2l66.1,38.2v27
	c2.2,1.7,4.3,3.5,6.2,5.3V53.9L95.8,12.2L23.5,53.9L23.5,88.8L23.5,88.8z"/>
<polygon class="st1" points="78.2,149.6 71,160.7 81.3,163.6 78.8,168.8 95.8,177.5 129.3,158.5 165.9,137.7 166.3,123.1 
	159.6,113.6 156.2,106.2 172,110.2 168.9,101 148.7,84.3 130.2,74.9 150.9,74.4 152.7,71.7 145.2,66.8 118.9,58.9 92.2,61.7 
	95.5,36.9 93.4,32 90.6,37.3 79.3,53.2 42.4,75.8 35.4,84.2 24.5,99.8 10.8,101.8 9.6,113.6 15,129 37.9,128 40.2,124.3 63.3,125 
	64.7,116.1 89,113.6 82.1,121.7 81.4,139.7 "/>
<path class="st2" d="M99.7,87.6c-0.1,0,28.4,30.4,18.4,71.2c0,0,5.4-4.1,10.5-16.3c0,0,1.8,12.8-3.5,18.6l13.4-8.4
	C138.6,152.7,136.2,101.3,99.7,87.6z M90.5,113.6l-1.1-0.6l-0.4,0.6l-18.8,3.1l-11.7,0.9l6.9,3.4l-1,3.3H38.8l-1.2,4.7l-22.8-1.2
	l-2.2-6l18.7,1.9c0,0-2.7-5.4,11.4-5.6c7.4-0.1,8.6,0.6,8.6,0.6s-8.1-6.2,8.7-7.6c9.2,0.5,18.4-0.9,24.5-4.1
	c-1.8-6-4.2-17.1,1.1-22.5c0,0-2.5,17,11.2,20.4c0.3,0.1,0.5,0.1,0.8,0.1L90.5,113.6z M172.5,108.4c1.4,1.6-0.5,1.8-0.5,1.8
	s-0.1,0-0.3-0.1l-0.8,1.6l-15-5.7c-1.4,1.2,8.6,14.6,8.6,14.6l0.9,16.3l-5.2,4v-17.2c0,0-18-25.4-28.8-27.1c0,0,5.3-0.4,12.4,0.5
	c-1.8-1.8-5.7-4.9-13.2-7.6c0,0,9.3,0.5,18.9,3.1c-15-8.8-38-15.1-38-15.1c10.9-6.6,19.3-8.7,25.3-8.7c-33.1-13.1-58.5,4.5-58.5,4.5
	s3.3-12.8,11.1-19.2c0,0-6.8,2.6-9.2,5.8c0,0-0.3-1.2,2-6s9.5-18.8,9.5-18.8l1.6-1.9l1.7,13l-4.5,15.3l-8,5l5.6-3.1L99.7,60
	l25.9,0.4l24,7.8l2.5,4.8l-2.5-0.2c0.8,0.7,1.2,1.2,1.2,1.2H140l-12,2.8l17,7.7c9.1,1.5,28.1,23,28.1,23L172.5,108.4z"/>
<path class="st3" d="M113.7,138.6c0,0,5.2,24.4-17.7,39.4l-15.7-9.5l1.5-3.3l-8-2.1l-2.7-3l10.2-16.7l0.9-22.9l15.4-15.4
	c0,0,2.8,12.3-7,20.8c0,0,13.3-4.8,17.4-10.2c0.2-0.3,0.4-0.5,0.5-0.8c3.3-5.8,2.7,22.2-3.5,28.1C105,143,110.8,142.4,113.7,138.6z
	 M114.6,94.5l23,36.7c-0.6-10,12.3,1.5,12.3,1.5C148.8,119,114.6,94.5,114.6,94.5z M30.5,93.2l-5.4,8.6c0,0,5.3,0,10.7-8.9
	c5.3-9,5.2-13,9.9-15.7l-3-1.4L30.5,93.2z M90.5,45.7c2.6-8.5,2.5-10.5,2.5-10.5l-2.5,3.2L82.2,54l-14.6,6.6l-10.8,7L56,71.1
	l4.1-1.6c0,0,4.9-3.7,8-4.7S87.9,54.2,90.5,45.7z"/>
<path class="st4" d="M74.9,162.5c0,0-4.1-0.5-4-2.3c0.1-1.6,7.4-8.3,9.7-15.9l0.7-4.6c0,0,0,0,0.1,0c0.7-8.4-0.2-18.2-0.2-18.2
	l5.4-2c0,0,2,9,1,19.1c5.4-1.2,12.6-3.3,15-6.6c0,0-6.4,10.6-16.7,15.5C84.2,153.5,80.8,159,74.9,162.5z M100.6,157.9
	c-2.9,3-12,6.4-17.6,8.3l-1.8-0.1l-0.3,0.8c-1.5,0.5-2.5,0.8-2.5,0.8l1.8,1.1l3.1,1.3l13.4,6l3.8-0.6l-9.4-5.5
	C96.7,165.5,100.6,157.9,100.6,157.9z"/>
<g>
	<path class="st2" d="M43.4,95.8c0,0,5.2-3.8,5.9-3.8s5.3-0.4,7.4-3.3c2.1-2.9,2.9-7.4,3-9.1l-4.4,1C55.4,80.7,46.2,89.1,43.4,95.8z
		"/>
	<path class="st3" d="M48.2,89.8c0,0,2.1-4.2,6.1-7.4C54.4,82.3,56.6,90,48.2,89.8z"/>
	<path d="M59,77.5c-11.3,4.4-14.9,15.6-15.1,16.1L43.2,96l1.8-1.7c1.3-1.2,3-2.7,3.4-3c0.7,0,3.6-0.3,5.7-2c2.1-1.6,1.9-5.8,1.8-7.1
		c0.2-0.2,0.5-0.4,0.7-0.5c0.1,0.6,0.2,2,0.2,3.4v1.5l1.1-1c1.6-1.3,2-6.4,2-7.4l0.1-1L59,77.5z M49.2,88.9c0,0,1.6-3.2,4.6-5.6
		C53.9,83.3,55.6,89.1,49.2,88.9z"/>
</g>
<path class="st0" d="M113.7,181.4h-10.8l10.8-6.2V181.4L113.7,181.4z M92.8,186.6h29v12.9h-7.2v15.6c0,3.9-0.9,6.7-2.7,8.6
	c-1.8,1.8-5.4,2.7-10.8,2.7H89.8c-5.4,0-9-0.9-10.8-2.7c-1.8-1.9-2.7-4.7-2.7-8.6v-12.4c0-3.9,1.8-6.7,5.5-8.6
	c0.9-0.4,1.3-0.7,1.4-1c0-0.3-0.5-0.7-1.4-1c-3.4-1.9-5.1-4.7-5.1-8.6l0-6.3c0-1,0.1-1.9,0.1-2.6l14.3,8.3c0,0.1,0,0.2,0,0.3l0,1.6
	C91.1,186,91.7,186.6,92.8,186.6z M99.7,199.5h-6.9c-1.1,0-1.7,0.6-1.7,1.8v10.5c0,1.2,0.6,1.8,1.7,1.8H98c1.2,0,1.7-0.6,1.7-1.8
	V199.5z M62.5,152.9v15.9v46.3c0,3.9-0.9,6.8-2.7,8.6c-1.8,1.8-5.4,2.7-10.8,2.7H23.4v-80.1v-4.6H49c5.4,0,8.9,0.9,10.8,2.7
	C61.6,146.2,62.5,149.1,62.5,152.9z M47.7,156.2c0-1.2-0.6-1.8-1.7-1.8h-7.8v0.4v58.8H46c1.1,0,1.7-0.6,1.7-1.8v-51.6V156.2z
	 M149.6,154.4h2c1.1,0,1.7,0.6,1.7,1.8v4v51.6c0,1.2-0.6,1.8-1.7,1.8h-7.8v-55.9l-14.8,8.5v60.1h25.6c5.4,0,9-0.9,10.8-2.7
	c1.8-1.8,2.7-4.7,2.7-8.6v-46.3v-15.9c0-3.4-0.7-6.1-2.2-7.9L149.6,154.4z"/>
<path class="st0" d="M69.8,250.5h8.4v10.7c0,1.7-0.4,2.9-1.2,3.7c-0.8,0.8-2.4,1.2-4.7,1.2H67c-2.3,0-3.9-0.4-4.7-1.2
	c-0.8-0.8-1.2-2-1.2-3.7v-19.1c0-1.7,0.4-2.9,1.2-3.7s2.4-1.2,4.7-1.2h5.1c2.3,0,3.9,0.4,4.7,1.2c0.8,0.8,1.2,2,1.2,3.7v5.1h-6.3
	v-3.7c0-0.5-0.2-0.8-0.8-0.8h-2.7c-0.5,0-0.7,0.3-0.7,0.8v16.3c0,0.5,0.2,0.8,0.7,0.8h2.9c0.5,0,0.8-0.3,0.8-0.8v-3.7h-2.2v-5.6
	H69.8z M121.7,242.7h5.3v23.4h6.5v-23.4h5.3v-5.6h-17.1C121.7,237.1,121.7,242.7,121.7,242.7z M82.4,260.6L82.4,260.6v5.6h14.5v-5.6
	h-8v-6.1h6.9v-5.6h-6.9v-6.1h8v-5.6H82.4V260.6z M112.8,253.9l-5.8-16.8h-6.5v29h6.1V250l5.8,16.2h6.5v-29h-6.1V253.9z"/>
<path d="M22.4,106c-2.5,0-4.7,6.6-4.7,6.6c2.2-3,4-3.6,5.3-3.6c1.1,0,1.9,0.5,2.4,0.5c0.1,0,0.2,0,0.3-0.2
	C26.2,108.2,24.8,106,22.4,106z M115.3,82.9c-0.6-0.5-1.1-1-1.8-1.5c-0.6-0.4-1.3-0.9-1.9-1.3c-0.3-0.2-0.7-0.4-1-0.6
	s-0.7-0.3-1-0.5c-0.7-0.3-1.4-0.7-2.1-1s-1.5-0.5-2.2-0.8c-0.4-0.1-0.8-0.2-1.1-0.3c-0.4-0.1-0.8-0.2-1.2-0.3
	c-0.8-0.1-1.6-0.3-2.3-0.4c-3.2-0.4-6.4-0.2-9.5,0.5c-3,0.8-6,2.1-8.3,4.3c3-0.7,5.9-1.1,8.8-1.2s5.7,0,8.5,0.3
	c0.7,0.1,1.4,0.2,2.1,0.3c0.4,0.1,0.7,0.1,1.1,0.2c0.3,0.1,0.7,0.2,1,0.2c0.7,0.2,1.4,0.3,2.1,0.5s1.4,0.4,2.1,0.6l1.1,0.3
	c0.3,0.1,0.7,0.2,1,0.3c0.7,0.2,1.4,0.4,2.1,0.7c1.4,0.5,2.8,1,4.3,1.4C116.5,83.9,115.9,83.4,115.3,82.9z M174.3,106.4
	c-1.1-1.9-4.1-6-4.2-6.1c-1-1.3-2-2.5-3-3.6c-9.8-10.8-22.7-17-32.3-20.5c2.1-0.3,4.1-0.4,5.9-0.4c4.7,0,8.3,0.7,8.3,0.7
	c0.2,0.1,0.5,0.1,0.8,0.1c1.9,0,3.6-1.2,4.3-3c0.8-2.1,0-4.4-1.9-5.6c-12-7.4-25.2-11.1-39.4-11.1c-6.1,0-12.2,0.6-18.4,2
	c3.6-10,3.7-20,3.5-24c-0.2-2.5-2.2-4.5-4.7-4.5h-0.1c-2.5,0-4.5,2.1-4.5,4.6c0,3.1-2.6,8-6.6,12.6c-4.4,5-9.9,8.8-14.6,10.3
	c-1.1,0.4-2.2,0.8-3.3,1.4c-1.5,0.8-2.9,1.7-4.1,2.8c-3.4,3-7.6,5.9-11.7,8.2l-0.6,0.4c-5.2,2.8-11,6-14.1,12.1
	c-1.2,2.3-3.4,6-5.6,9.2c-0.1,0.1-0.2,0.3-0.3,0.4c-1,1.4-2,2.6-2.8,3.5c-1.1,1.3-1.7,1.6-1.7,1.6c-0.1,0.1-0.2,0.2-0.3,0.2
	c-4.1,1.5-7.5,1.7-9.2,1.7c-0.6,0-1,0-1.1,0c-0.2,0-0.4,0-0.6,0c-2.2,0-4,1.5-4.5,3.7c-2,9.9-0.1,19.3,5.2,25.7
	c0.8,0.9,2,1.5,3.2,1.6l12.1,1l7.6,0.7c0.1,0,0.3,0,0.4,0c1.9,0,3.6-1.1,4.3-2.9c0.3-0.9,0.4-1.8,0.2-2.7c1.5-0.2,3.7-0.4,7.1-0.4
	c4.3,0,9.3,0.3,14.9,1c0.2,0,0.4,0,0.6,0c2.1,0,4-1.6,4.5-3.7c0.1-0.5,0.5-3.1-1.9-4.8c0.7,0,1.5-0.1,2.2-0.1c0.1,0,0.1,0,0.2,0
	c0.5,0,1.3-0.1,2.3-0.1c3.8-0.1,9.6-0.3,14.5-1.9c-0.8,0.7-1.8,1.3-2.8,1.9c-1.6,0.9-2.5,2.8-2.3,4.6c0.3,2.4,0,12.2-0.4,13.7
	c-0.6,2.7-1,5.5-1.4,8.2c-0.9,3.3-3.5,7.4-7.7,11.8c-1.2,1.3-1.6,3-1,4.7c0.6,1.7,2,2.9,3.7,3.1c1.5,0.3,3.3,0.5,5.3,0.7
	c-0.8,0.7-0.8,1-0.9,2c-0.2,1.9,3,3,4.6,4l13.9,8l72.3-41.7v-13.3l0,0l0-0.9c0-0.8-0.3-1.6-0.7-2.3c-1.8-3-3.8-6-5.9-8.8
	c0-0.1,0-0.2-0.1-0.2c-1-1.1-1.8-2.1-2.7-3.1c1,0.3,1.9,0.7,2.9,1.1c2.1,0.9,4.2,1.9,6.2,3c0.7,0.4,1.4,0.6,2.2,0.6
	c1.2,0,2.4-0.5,3.3-1.4c0.8-0.9,1.3-2.1,1.3-3.3C174.6,108.1,174.6,107.2,174.3,106.4z M162.9,105.3c-5.5-2.3-11.8-4.2-18.6-4.8
	c0,0,2.9,2.3,6.8,6.5c0.1,0.2,0.3,0.5,0.5,0.7c1.6,2,3.7,4.2,5.8,6.8c1.5,2,3,4.2,4.5,6.6v12.7l-18.2,10.5
	c-3.9-19.2-14.5-48.2-44.3-57.2c0,0,32.5,17.8,24.7,57.4c0,0,5.8-14.4,5.5-22.2c0,0,4.6,12.5,2.3,28.8L95.8,172l-9.4-5.4
	c9.7-2.9,14.2-8.7,14.2-8.7c-3.3,2.5-8.9,2.8-14.5,2.8c-4.9,0-9.8-0.5-12.8-1c4.5-4.9,8-10,9-14.7c0.1-0.3,0.1-0.6,0.2-0.9
	c13.9-1.5,20.7-13.3,20.7-13.3c-5,4.4-13.1,5.2-18,5.2c-0.4,0-0.9,0-1.3,0c0.6-5.6,0.6-10.3,0.2-13.8c12.3-7.1,13.2-17.3,13.2-17.3
	c-9.2-0.1-12.2-14.4-12.2-14.4c-2.7,11.5,4.5,16.4,4.5,16.4c-2.8,7.3-17.7,6.5-22.1,6.8c-2.4,0.1-5.3,0.4-8.6,0.6
	c-14.5,1,4.7,8,3.9,8c-6.4-0.7-11.5-1-15.4-1c-8.2,0-11.5,1.2-12,1.7c-2.2,2.3,0.3,4.3,0.3,4.3l-7.6-0.7l-10.6-0.9
	c4.4-5.1,14.8-6.1,19.5-6.5c2.4-0.2,2.8-0.2,2.8-0.7c0-0.4,1.1-2.6,2.2-4.6l5.1-0.9c5.2-1,15.7-8.7,17.3-11.7
	c1.5-2.8,6.6-5.5,6.6-5.5l1.7-0.9l-2,0.3c-0.3,0-6.8,1.1-9.2,5.4c-2,3.6-9,6.7-13.1,8.6c-0.4,0.2-0.9,0.4-1.3,0.6
	c-3.7,1.7-7.2,0.6-7.2,0.6l-0.3-0.1l-2.4,5.8c-0.7,0-2.8,0.2-7.9,0.5c-5.4,0.3-12.6,5.4-14.8,7.1c-3.1-4.7-4.7-11.6-2.9-20
	c0,0,0.6,0.1,1.6,0.1c2.2,0,6.3-0.3,11.3-2.2c0.1,0,0.2,0,0.3-0.1c0.9-0.4,2-1.4,3.1-2.6c1-1.1,2.1-2.5,3.1-3.9
	c0.8,1.2,2.1,2.6,4.1,2.6c0.3,0,0.6,0,0.9-0.1l1.1-0.2l-1-0.4c-0.1-0.1-3.5-1.5-3.2-4.5c0.8-1.3,1.7-2.7,2.4-3.9
	c0.8,1,2,2.1,3.8,2.1c0.3,0,0.6,0,0.9-0.1l1.1-0.2l-1-0.4c-0.2,0-3.3-1.3-3.3-4c0.2-0.4,0.4-0.8,0.6-1.1c2.6-5,7.8-7.8,12.8-10.5
	c0.3-0.2,0.6-0.3,0.9-0.5c10.4-0.9,19.2-7.4,19.2-7.4c-4.3,2.4-10.3,3-12.5,3.1c1.7-1.2,3.4-2.6,5-4c0.9-0.9,2-1.6,3.1-2.1
	c0.8-0.4,1.6-0.8,2.6-1.1C80.3,58.7,92.9,44,92.9,35c0.1,3.4,0.1,14.4-4.2,24.6C78.9,65,78.3,73.3,78.3,73.3c0.4-3.1,7.1-7,10.1-8.2
	c6.1-2.4,14.6-3.6,24-3.6c11.3,0,24.2,2.5,37,10.4c0,0-3.9-0.7-9.1-0.7c-6.3,0-14.5,1.1-20.2,5.8c0,0,26.6,4.7,43.3,22.8
	c1.1,1.2,2.1,2.5,3.1,3.8c1.2,1.6,2.4,3.4,3.4,5.2C167.9,107.7,165.6,106.7,162.9,105.3z"/>
</svg>
